<mxfile host="app.diagrams.net" agent="Mozilla/5.0 (Windows NT 10.0; Win64; x64) AppleWebKit/537.36 (KHTML, like Gecko) Chrome/109.0.0.0 Safari/537.36" version="25.0.3">
  <diagram name="Страница — 1" id="0JWk6hds51MMgkaadTex">
    <mxGraphModel dx="1434" dy="1960" grid="1" gridSize="10" guides="1" tooltips="1" connect="1" arrows="1" fold="1" page="1" pageScale="1" pageWidth="827" pageHeight="1169" math="0" shadow="0">
      <root>
        <mxCell id="0" />
        <mxCell id="1" parent="0" />
        <object label="ЭлектроннаяПодписьСлужебный.ПоставляемыеНастройкиПрограмм()" att_discription="содержит описание настроек программ эпш" placeholders="1" id="WQm0HKVgplRZhiTQNlDb-1">
          <mxCell style="shape=cylinder3;whiteSpace=wrap;html=1;boundedLbl=1;backgroundOutline=1;size=15;container=0;metaEdit=1;fillColor=#d5e8d4;strokeColor=#82b366;" vertex="1" parent="1">
            <mxGeometry x="680" y="-180" width="454" height="90" as="geometry" />
          </mxCell>
        </object>
        <mxCell id="WQm0HKVgplRZhiTQNlDb-2" value="Справочник.ПрограммыЭлектроннойПодписиИШифрования" style="swimlane;whiteSpace=wrap;html=1;" vertex="1" parent="1">
          <mxGeometry x="630" y="10" width="510" height="290" as="geometry">
            <mxRectangle x="40" y="180" width="390" height="30" as="alternateBounds" />
          </mxGeometry>
        </mxCell>
        <mxCell id="WQm0HKVgplRZhiTQNlDb-15" value="" style="group" vertex="1" connectable="0" parent="WQm0HKVgplRZhiTQNlDb-2">
          <mxGeometry x="9" y="31" width="490" height="249.00000000000003" as="geometry" />
        </mxCell>
        <mxCell id="WQm0HKVgplRZhiTQNlDb-12" value="модуль менеджера" style="swimlane;whiteSpace=wrap;html=1;" vertex="1" parent="WQm0HKVgplRZhiTQNlDb-15">
          <mxGeometry width="261" height="249.00000000000003" as="geometry">
            <mxRectangle width="150" height="30" as="alternateBounds" />
          </mxGeometry>
        </mxCell>
        <mxCell id="WQm0HKVgplRZhiTQNlDb-18" value="ПоставляемыеНастройкиПрограмм()" style="swimlane;fontStyle=0;childLayout=stackLayout;horizontal=1;startSize=30;horizontalStack=0;resizeParent=1;resizeParentMax=0;resizeLast=0;collapsible=1;marginBottom=0;whiteSpace=wrap;html=1;" vertex="1" collapsed="1" parent="WQm0HKVgplRZhiTQNlDb-12">
          <mxGeometry x="11" y="29" width="229" height="30" as="geometry">
            <mxRectangle x="11" y="29" width="219" height="60" as="alternateBounds" />
          </mxGeometry>
        </mxCell>
        <mxCell id="WQm0HKVgplRZhiTQNlDb-19" value="Заполняет ТЗ поставляемыми настройками" style="text;strokeColor=none;fillColor=none;align=left;verticalAlign=middle;spacingLeft=4;spacingRight=4;overflow=hidden;points=[[0,0.5],[1,0.5]];portConstraint=eastwest;rotatable=0;whiteSpace=wrap;html=1;" vertex="1" parent="WQm0HKVgplRZhiTQNlDb-18">
          <mxGeometry y="30" width="219" height="30" as="geometry" />
        </mxCell>
        <mxCell id="WQm0HKVgplRZhiTQNlDb-13" value="модуль объекта" style="swimlane;whiteSpace=wrap;html=1;" vertex="1" parent="WQm0HKVgplRZhiTQNlDb-15">
          <mxGeometry x="250" width="240" height="249.00000000000003" as="geometry" />
        </mxCell>
        <mxCell id="WQm0HKVgplRZhiTQNlDb-3" style="edgeStyle=orthogonalEdgeStyle;rounded=0;orthogonalLoop=1;jettySize=auto;html=1;fillColor=#d5e8d4;strokeColor=#82b366;strokeWidth=3;exitX=0;exitY=0.5;exitDx=0;exitDy=0;exitPerimeter=0;" edge="1" parent="1" source="WQm0HKVgplRZhiTQNlDb-1" target="WQm0HKVgplRZhiTQNlDb-18">
          <mxGeometry relative="1" as="geometry">
            <mxPoint x="673.98" y="48.087999999999965" as="targetPoint" />
            <Array as="points">
              <mxPoint x="674" y="-135" />
            </Array>
          </mxGeometry>
        </mxCell>
        <mxCell id="WQm0HKVgplRZhiTQNlDb-4" value="Описание настроек программ ЭПШ&lt;div&gt;ТаблицаЗначений&lt;br&gt;&lt;/div&gt;" style="edgeLabel;html=1;align=left;verticalAlign=middle;resizable=0;points=[];labelBackgroundColor=#CCFF99;" vertex="1" connectable="0" parent="WQm0HKVgplRZhiTQNlDb-3">
          <mxGeometry x="-0.0405" y="-1" relative="1" as="geometry">
            <mxPoint as="offset" />
          </mxGeometry>
        </mxCell>
        <mxCell id="WQm0HKVgplRZhiTQNlDb-22" value="Обработка.ПрограммыЭлектроннойПодписиИШифрования" style="swimlane;whiteSpace=wrap;html=1;" vertex="1" parent="1">
          <mxGeometry x="30" y="-190" width="580" height="290" as="geometry">
            <mxRectangle x="40" y="180" width="390" height="30" as="alternateBounds" />
          </mxGeometry>
        </mxCell>
        <mxCell id="WQm0HKVgplRZhiTQNlDb-23" value="" style="group" vertex="1" connectable="0" parent="WQm0HKVgplRZhiTQNlDb-22">
          <mxGeometry x="9" y="31" width="560" height="250" as="geometry" />
        </mxCell>
        <mxCell id="WQm0HKVgplRZhiTQNlDb-28" value="" style="group" vertex="1" connectable="0" parent="WQm0HKVgplRZhiTQNlDb-23">
          <mxGeometry width="560" height="250" as="geometry" />
        </mxCell>
        <mxCell id="WQm0HKVgplRZhiTQNlDb-24" value="модуль менеджера" style="swimlane;whiteSpace=wrap;html=1;" vertex="1" parent="WQm0HKVgplRZhiTQNlDb-28">
          <mxGeometry width="285.7142857142857" height="249.99999999999997" as="geometry" />
        </mxCell>
        <mxCell id="WQm0HKVgplRZhiTQNlDb-25" value="ПоставляемыеНастройкиПрограмм()" style="swimlane;fontStyle=0;childLayout=stackLayout;horizontal=1;startSize=30;horizontalStack=0;resizeParent=1;resizeParentMax=0;resizeLast=0;collapsible=1;marginBottom=0;whiteSpace=wrap;html=1;" vertex="1" parent="WQm0HKVgplRZhiTQNlDb-24">
          <mxGeometry x="12.571428571428571" y="29.11646586345381" width="250.28571428571428" height="60.12048192771084" as="geometry" />
        </mxCell>
        <mxCell id="WQm0HKVgplRZhiTQNlDb-26" value="Заполняет ТЗ поставляемыми настройками" style="text;strokeColor=none;fillColor=none;align=left;verticalAlign=middle;spacingLeft=4;spacingRight=4;overflow=hidden;points=[[0,0.5],[1,0.5]];portConstraint=eastwest;rotatable=0;whiteSpace=wrap;html=1;" vertex="1" parent="WQm0HKVgplRZhiTQNlDb-25">
          <mxGeometry y="30" width="250.28571428571428" height="30.120481927710838" as="geometry" />
        </mxCell>
        <mxCell id="WQm0HKVgplRZhiTQNlDb-27" value="модуль объекта" style="swimlane;whiteSpace=wrap;html=1;" vertex="1" parent="WQm0HKVgplRZhiTQNlDb-28">
          <mxGeometry x="285.7142857142857" width="274.2857142857143" height="249.99999999999997" as="geometry" />
        </mxCell>
      </root>
    </mxGraphModel>
  </diagram>
</mxfile>
